PathFileType	4	(X/Y/Z)	\\Move.snu.ac.kr\motion\Animal\091204_091205_Bird\091205_bird\Project 2\Capture day 2\Session 1\pigeon_024.trc
DataRate	CameraRate	NumFrames	NumMarkers	Units	OrigDataRate	OrigDataStartFrame	OrigNumFrames
240.0	240.0	18	14	mm	240.0	300	1929
Frame#	Time	14MarkersBird:Head			14MarkersBird:C_back			14MarkersBird:Spine			14MarkersBird:L-shoulder			14MarkersBird:L-elbow			14MarkersBird:L-wrist			14MarkersBird:L-hand			14MarkersBird:R-shoulder			14MarkersBird:R-elbow			14MarkersBird:R-Wrist			14MarkersBird:R-hand			14MarkersBird:C_Tail			14MarkersBird:L-Tale			14MarkersBird:R-Tale			
		X1	Y1	Z1	X2	Y2	Z2	X3	Y3	Z3	X4	Y4	Z4	X5	Y5	Z5	X6	Y6	Z6	X7	Y7	Z7	X8	Y8	Z8	X9	Y9	Z9	X10	Y10	Z10	X11	Y11	Z11	X12	Y12	Z12	X13	Y13	Z13	X14	Y14	Z14	

1186	4.938	1495.92957	666.48804	89.45702	1465.62244	664.42889	31.30705	1431.03235	651.24091	-9.29916	1496.48071	658.26105	46.10566	1509.38818	642.50897	19.72557	1540.10181	621.02789	44.20350	1561.51135	604.39252	48.21996	1462.86218	663.65564	73.83039	1436.25439	664.64679	78.67085	1441.40405	647.17664	117.58527	1427.32898	633.14252	151.70439	1367.65771	568.90381	-78.10313	1474.66357	590.42822	-83.19185	1320.91980	637.68799	13.28430	
1187	4.942	1506.71069	662.11890	102.91135	1476.01965	660.84119	44.87450	1441.19678	646.80432	4.58001	1507.14355	654.56787	59.57044	1519.12646	637.02014	33.45918	1547.71826	617.29675	61.99795	1565.58167	598.28009	70.16783	1473.66858	659.94098	87.54486	1446.83411	659.25323	92.39133	1456.95483	640.85040	129.77380	1446.67725	622.02985	163.41124	1377.22119	561.84351	-60.93667	1484.23962	585.24390	-69.41753	1331.46924	631.54547	28.06604	
1188	4.946	1517.62793	657.68628	116.50248	1486.52148	657.07764	58.70076	1451.57739	642.40656	18.46644	1517.87451	650.75446	73.23025	1528.66772	632.55188	46.39331	1556.29004	616.03912	77.76383	1570.49548	595.47540	89.27058	1484.55994	656.21021	101.28119	1457.10718	655.10535	105.39713	1471.55188	637.55145	141.44080	1464.46301	615.28314	174.40724	1387.48608	555.39587	-44.53048	1493.94812	579.60150	-55.29161	1342.20544	624.55310	43.13537	
1189	4.950	1528.71790	653.17108	130.30014	1497.15527	652.99908	72.89197	1462.23279	638.18091	32.34156	1528.61084	646.68445	87.11803	1538.08350	629.11908	58.63797	1565.88745	616.70740	91.49635	1577.19629	595.20300	105.10897	1495.58582	652.41742	114.96281	1467.14722	652.17981	117.79203	1484.93127	637.12872	152.86331	1479.81165	612.57715	185.37053	1398.44458	549.45837	-28.87849	1503.50769	573.42743	-40.88482	1353.16223	617.05634	58.24866	
1190	4.954	1539.98828	648.56061	144.32024	1507.94983	648.56152	87.46562	1473.13232	634.10260	46.30223	1539.30798	642.26959	101.25011	1547.28589	626.69275	70.50103	1576.22827	618.60760	103.42988	1586.01318	596.33679	117.63548	1506.80151	648.57690	128.52106	1477.13940	650.33636	129.47522	1497.09558	639.05481	164.16174	1492.22119	613.00787	196.51691	1409.90063	544.05133	-13.89196	1512.86108	566.98248	-26.34510	1364.31409	609.56995	73.10594	
1191	4.958	1551.38940	643.84320	158.49918	1518.92102	643.83990	102.28575	1484.17688	630.01593	60.49060	1549.94653	637.51605	115.62190	1556.07947	625.17535	82.39206	1586.93274	621.22833	113.93020	1596.53381	597.83459	127.03970	1518.17847	644.63696	141.97168	1487.42859	649.24042	140.25647	1508.23840	642.48737	175.37291	1501.67102	615.55103	207.57660	1421.57129	539.16864	0.56677	1522.15845	560.77521	-11.90358	1375.55872	602.63403	87.48510	
1192	4.963	1562.83557	639.00574	172.72923	1530.05542	638.95935	117.13770	1495.28552	625.81940	74.94189	1560.55444	632.49738	130.20131	1564.28369	624.35822	94.72746	1597.65247	624.23969	123.47468	1607.77930	599.15741	133.56822	1529.56580	640.38538	155.47525	1498.44775	648.36609	150.06215	1518.58618	646.38623	186.51550	1508.52429	619.46442	218.00902	1433.19373	534.69305	14.65023	1531.69141	555.39471	2.17486	1386.74353	596.70184	101.29954	
1193	4.967	1574.24377	634.04279	186.91039	1541.30420	633.98853	131.87657	1506.44336	621.54633	89.53739	1571.20764	627.27277	144.91269	1571.87683	623.92175	107.83769	1608.03442	627.23328	132.72118	1618.57690	600.45911	137.63535	1540.80713	635.57532	169.22348	1510.52112	647.14252	159.08463	1528.42761	649.86664	197.39473	1513.35327	624.37097	227.24220	1444.61340	530.47858	28.45342	1541.81812	551.32440	15.68880	1397.74500	592.07928	114.58502	
1194	4.971	1585.55981	628.96149	200.98802	1552.56519	628.80249	146.56285	1517.65356	617.22089	104.12283	1582.00500	621.83289	159.61745	1579.05701	623.48499	121.87350	1617.79700	629.65515	142.41566	1627.96606	602.30762	140.11279	1551.98181	630.27118	183.14851	1523.71240	645.13196	167.78415	1538.18835	652.46814	207.61687	1516.93591	630.13043	234.78539	1455.80518	526.45673	41.94444	1552.84729	548.76288	28.62929	1408.52600	588.88495	127.47185	
1195	4.975	1596.76099	623.77863	214.95750	1563.68396	623.22534	161.14790	1528.86414	612.70215	118.60322	1593.00562	616.14557	174.11531	1586.19165	622.66229	136.78520	1626.94653	630.98645	153.08109	1635.54346	605.14526	142.38077	1563.23328	624.70288	197.09337	1537.82275	642.11603	176.78554	1548.26074	654.00793	217.21216	1520.30627	636.69666	240.38330	1466.83984	522.65283	54.96297	1564.89661	547.58063	41.21919	1419.14563	587.03979	140.13647	
1196	4.979	1607.84448	618.51147	228.85765	1574.43750	617.29681	174.92285	1539.97913	607.78174	132.93927	1604.17798	610.28320	188.29047	1593.71057	621.13501	152.36958	1635.89600	630.93207	164.69681	1641.69128	609.02130	145.91237	1574.50562	618.97937	211.04047	1552.47412	638.09491	186.71365	1558.71863	654.37317	226.89290	1524.69324	643.95526	244.21370	1477.84119	519.15961	67.28293	1577.81543	547.43573	53.79816	1429.74695	586.30133	152.74310	
1197	4.983	1618.81958	613.17798	242.73700	1584.60486	611.27728	187.00810	1550.91797	602.37939	147.12050	1615.44116	604.42389	202.22539	1602.03235	618.73633	168.32092	1645.31848	629.42218	176.69684	1647.51282	613.65332	151.62573	1585.62769	613.15521	224.99947	1567.17188	633.29370	197.99406	1569.22620	653.57446	237.52916	1531.19055	651.51654	247.15654	1488.95251	516.12671	78.69685	1591.24854	547.90753	66.66254	1440.50598	586.30737	165.41353	
1198	4.988	1629.70532	607.79816	256.61795	1594.25732	605.37653	197.55147	1561.67944	596.57990	161.16386	1626.69092	598.72272	216.05533	1611.53223	615.43396	184.21828	1655.79517	626.48370	188.34201	1654.41919	618.41980	159.60683	1596.47107	607.27649	238.98775	1581.35742	628.17529	210.79413	1579.17798	651.67865	249.65753	1540.16138	658.64758	250.91641	1500.28394	513.77167	89.10087	1604.78931	548.49402	79.96789	1451.54175	586.56885	178.24960	
1199	4.992	1640.52148	602.38489	270.48477	1604.13879	599.66589	208.65915	1572.30505	590.56335	175.15889	1637.82556	593.21198	229.79672	1622.45166	611.22522	199.55165	1667.52246	622.12128	199.11128	1663.64502	622.23029	169.29094	1606.99963	601.36511	253.09149	1594.45032	623.21619	225.13266	1588.03284	648.64386	263.34055	1550.84497	664.30450	257.64587	1511.85181	512.35651	98.58020	1618.13635	548.54181	93.69974	1462.82617	586.40973	191.38026	
1200	4.996	1651.28552	596.93848	284.29782	1615.06921	594.15332	222.73199	1582.72827	584.39691	189.22523	1648.78101	587.76563	243.32454	1634.73291	606.07794	213.85605	1680.27734	616.25134	208.87631	1675.91211	623.59808	179.81430	1617.28601	595.47028	267.31976	1605.95508	618.55591	240.88432	1595.58203	644.25372	278.30832	1561.65137	667.27716	269.04379	1523.54956	512.05933	107.47359	1631.15344	547.27966	107.79051	1474.13330	584.98065	204.96851	
1201	5.000	1662.01160	591.47333	298.01495	1626.88281	588.79150	239.37099	1593.25879	578.38391	203.08992	1659.53711	582.23981	256.50717	1647.96594	600.00073	226.93471	1693.63647	608.68549	217.96931	1691.23987	621.12738	190.44847	1627.45703	589.61707	281.54904	1615.71216	614.00452	257.57382	1602.03149	638.24908	294.18527	1571.12427	666.52625	285.57928	1535.17273	512.74219	116.36198	1643.79822	544.09033	122.22168	1485.14282	581.53931	219.10992	
1202	5.004	1672.71655	586.03674	311.60791	1638.67639	583.50580	255.95981	1603.94885	572.69788	216.50607	1670.11853	576.69122	269.36899	1661.61450	593.09406	238.99026	1707.23633	599.33032	227.07019	1708.91064	614.19659	201.07733	1637.68542	583.85071	295.59180	1624.04321	609.26459	274.47018	1607.94226	630.53387	310.69501	1578.90405	661.56757	306.46533	1546.48767	513.73431	125.91805	1656.03406	538.85931	136.94167	1495.66162	575.84882	233.69301	
1203	5.008	1683.42993	580.69678	325.06378	1649.91943	578.25195	270.85788	1614.72070	567.29895	229.54749	1680.66187	571.26990	282.06186	1675.34546	585.53638	250.52757	1720.83740	588.43872	237.01247	1727.71838	603.22955	212.34412	1648.10071	578.23334	309.39026	1631.61365	604.00854	291.07092	1614.13147	621.30377	327.76248	1585.91077	652.62036	330.29013	1557.33362	513.89124	136.66086	1667.79688	532.01447	151.73795	1505.75537	568.30713	248.41199	
